<svg width="658" height="740" viewBox="0 0 658 740" fill="none" xmlns="http://www.w3.org/2000/svg">
<g id="Frame" clip-path="url(#clip0)">
<g id="man">
<path id="Vector" d="M556.779 739.313C612.56 739.313 657.779 734.836 657.779 729.313C657.779 723.79 612.56 719.313 556.779 719.313C500.998 719.313 455.779 723.79 455.779 729.313C455.779 734.836 500.998 739.313 556.779 739.313Z" fill="#E6E6E6"/>
<path id="Vector_2" d="M557.418 247.795C573.143 247.795 585.89 235.047 585.89 219.322C585.89 203.597 573.143 190.85 557.418 190.85C541.693 190.85 528.946 203.597 528.946 219.322C528.946 235.047 541.693 247.795 557.418 247.795Z" fill="#FFB8B8"/>
<path id="Vector_3" d="M586.66 270.88L538.18 270.111C542.35 258.621 544.157 247.862 541.258 238.56L578.195 234.713C573.204 246.769 576.026 258.824 586.66 270.88Z" fill="#FFB8B8"/>
<path id="Vector_4" d="M485.853 461.722L493.903 483.189C494.594 485.031 494.858 487.006 494.674 488.965C494.491 490.924 493.866 492.815 492.845 494.497C491.825 496.179 490.436 497.608 488.783 498.675C487.131 499.742 485.257 500.42 483.305 500.659V500.659C481.436 500.886 479.541 500.706 477.749 500.129C475.957 499.553 474.312 498.594 472.927 497.32C471.542 496.045 470.451 494.485 469.728 492.747C469.005 491.009 468.668 489.135 468.74 487.254L469.693 462.491L476.618 335.52L505.091 343.985L485.853 461.722Z" fill="#FFB8B8"/>
<path id="Vector_5" d="M628.984 461.722L620.933 483.189C620.242 485.031 619.979 487.006 620.162 488.965C620.345 490.924 620.971 492.815 621.991 494.497C623.012 496.179 624.4 497.608 626.053 498.675C627.706 499.742 629.579 500.42 631.532 500.659V500.659C633.4 500.886 635.296 500.706 637.087 500.129C638.879 499.553 640.524 498.594 641.909 497.32C643.294 496.045 644.386 494.485 645.109 492.747C645.831 491.009 646.168 489.135 646.096 487.254L645.144 462.491L638.218 335.52L609.746 343.985L628.984 461.722Z" fill="#FFB8B8"/>
<path id="Vector_6" d="M598.972 700.273L575.887 697.965L555.11 496.35L525.868 701.812L504.321 701.043L498.935 475.573H602.05L598.972 700.273Z" fill="#2F2E41"/>
<path id="Vector_7" d="M523.559 208.549C523.559 208.549 531.254 225.478 536.641 226.248C542.028 227.018 551.262 235.482 549.723 239.33C548.184 243.177 548.953 254.72 564.344 253.181C579.734 251.642 578.965 250.103 578.965 250.103C578.965 250.103 603.589 203.162 578.195 190.85C552.801 178.538 530.485 187.772 523.559 208.549Z" fill="#2F2E41"/>
<path id="Vector_8" d="M503.144 690.029L504.069 709.452C504.069 709.452 489.972 731.439 507.545 731.439C507.721 731.439 507.372 731.439 507.545 731.439C520.254 731.399 531.741 737.118 530.238 724.498L528.117 706.677L524.417 687.254L503.144 690.029Z" fill="#2F2E41"/>
<path id="Vector_9" d="M598.78 690.029L597.855 709.452C597.855 709.452 611.952 731.439 594.379 731.439C594.203 731.439 594.552 731.439 594.379 731.439C581.67 731.399 570.183 737.118 571.686 724.498L573.807 706.677L577.507 687.254L598.78 690.029Z" fill="#2F2E41"/>
<path id="Vector_10" d="M610.515 484.807L495.856 479.421C517.24 410.8 517.398 354.651 490.47 302.949C490.47 297.54 492.054 292.249 495.028 287.731C498.001 283.213 502.233 279.664 507.201 277.524L540.489 263.185L582.812 265.494L610.739 280.853C616.208 283.861 620.72 288.348 623.758 293.8C626.796 299.252 628.238 305.449 627.919 311.682C603.469 370.048 602.073 427.601 610.515 484.807Z" fill="#3F3D56"/>
<path id="Vector_11" d="M525.098 350.91L461.228 340.137L471.751 314.011C475.451 304.825 481.09 296.545 488.282 289.736C495.474 282.928 504.05 277.751 513.426 274.559L519.712 272.419L525.098 350.91Z" fill="#3F3D56"/>
<path id="Vector_12" d="M589.738 350.91L653.608 340.137L643.085 314.011C639.385 304.825 633.747 296.545 626.555 289.736C619.363 282.928 610.786 277.751 601.411 274.559L595.125 272.419L589.738 350.91Z" fill="#3F3D56"/>
</g>
<g id="image1">
<path id="Vector_13" d="M174.211 205.937H74.8746L98.2518 165.446C98.6707 164.72 99.2733 164.117 99.9991 163.698C100.725 163.279 101.548 163.058 102.386 163.058C103.224 163.058 104.047 163.279 104.773 163.698C105.499 164.117 106.101 164.72 106.52 165.446L116.507 182.743L133.487 153.332C134.012 152.423 134.766 151.669 135.675 151.144C136.583 150.62 137.614 150.343 138.663 150.343C139.712 150.343 140.743 150.62 141.652 151.144C142.56 151.669 143.315 152.423 143.839 153.332L174.211 205.937Z" fill="#6C63FF"/>
<path id="Vector_14" d="M174.304 205.926H68.4121C67.2424 205.924 66.1209 205.459 65.2938 204.632C64.4666 203.805 64.0014 202.683 64 201.514V142.412C64.0014 141.242 64.4666 140.121 65.2938 139.294C66.1209 138.467 67.2424 138.001 68.4121 138H174.304C175.474 138.001 176.596 138.467 177.423 139.294C178.25 140.121 178.715 141.242 178.717 142.412V201.514C178.715 202.683 178.25 203.805 177.423 204.632C176.596 205.459 175.474 205.924 174.304 205.926V205.926ZM68.4121 139.765C67.7103 139.766 67.0374 140.045 66.5411 140.541C66.0448 141.037 65.7656 141.71 65.7649 142.412V201.514C65.7656 202.215 66.0448 202.888 66.5411 203.385C67.0374 203.881 67.7103 204.16 68.4121 204.161H174.304C175.006 204.16 175.679 203.881 176.176 203.385C176.672 202.888 176.951 202.215 176.952 201.514V142.412C176.951 141.71 176.672 141.037 176.176 140.541C175.679 140.045 175.006 139.766 174.304 139.765H68.4121Z" fill="#3F3D56"/>
</g>
<g id="image2">
<path id="Vector_15" d="M322.669 363.926H84.4122C83.2424 363.924 82.121 363.459 81.2938 362.632C80.4667 361.805 80.0014 360.683 80 359.514V300.412C80.0014 299.242 80.4667 298.121 81.2938 297.294C82.121 296.467 83.2424 296.001 84.4122 296H322.669C323.839 296.001 324.96 296.467 325.788 297.294C326.615 298.121 327.08 299.242 327.081 300.412V359.514C327.08 360.683 326.615 361.805 325.788 362.632C324.96 363.459 323.839 363.924 322.669 363.926V363.926ZM84.4122 297.765C83.7103 297.766 83.0374 298.045 82.5411 298.541C82.0448 299.037 81.7656 299.71 81.7649 300.412V359.514C81.7656 360.215 82.0448 360.888 82.5411 361.385C83.0374 361.881 83.7103 362.16 84.4122 362.161H322.669C323.371 362.16 324.044 361.881 324.54 361.385C325.037 360.888 325.316 360.215 325.317 359.514V300.412C325.316 299.71 325.037 299.037 324.54 298.541C324.044 298.045 323.371 297.766 322.669 297.765H84.4122Z" fill="#3F3D56"/>
<path id="Vector_16" d="M162.941 315.713C162.147 315.713 161.385 316.029 160.823 316.591C160.261 317.152 159.946 317.914 159.946 318.709C159.946 319.503 160.261 320.265 160.823 320.827C161.385 321.389 162.147 321.704 162.941 321.704H304.156C304.95 321.704 305.712 321.389 306.274 320.827C306.836 320.265 307.151 319.503 307.151 318.709C307.151 317.914 306.836 317.152 306.274 316.591C305.712 316.029 304.95 315.713 304.156 315.713H162.941Z" fill="#6C63FF"/>
<path id="Vector_17" d="M162.941 333.686C162.147 333.686 161.385 334.002 160.823 334.563C160.261 335.125 159.946 335.887 159.946 336.682C159.946 337.476 160.261 338.238 160.823 338.8C161.385 339.361 162.147 339.677 162.941 339.677H223.706C224.501 339.677 225.263 339.361 225.824 338.8C226.386 338.238 226.702 337.476 226.702 336.682C226.702 335.887 226.386 335.125 225.824 334.563C225.263 334.002 224.501 333.686 223.706 333.686H162.941Z" fill="#6C63FF"/>
<path id="Vector_18" d="M121.433 345.668C131.359 345.668 139.405 337.621 139.405 327.695C139.405 317.769 131.359 309.722 121.433 309.722C111.506 309.722 103.46 317.769 103.46 327.695C103.46 337.621 111.506 345.668 121.433 345.668Z" fill="#6C63FF"/>
</g>
<g id="image3">
<path id="Vector_19" d="M259.412 116H365.304C366.474 116.001 367.596 116.467 368.423 117.294C369.25 118.121 369.715 119.242 369.717 120.412V230.695C369.715 231.864 369.25 232.986 368.423 233.813C367.596 234.64 366.474 235.105 365.304 235.107H259.412C258.242 235.105 257.121 234.64 256.294 233.813C255.467 232.986 255.001 231.864 255 230.695V120.412C255.001 119.242 255.467 118.121 256.294 117.294C257.121 116.467 258.242 116.001 259.412 116ZM365.304 233.342C366.006 233.341 366.679 233.062 367.176 232.566C367.672 232.069 367.951 231.396 367.952 230.695V120.412C367.951 119.71 367.672 119.037 367.176 118.541C366.679 118.045 366.006 117.766 365.304 117.765H259.412C258.71 117.766 258.037 118.045 257.541 118.541C257.045 119.037 256.766 119.71 256.765 120.412V230.695C256.766 231.396 257.045 232.069 257.541 232.566C258.037 233.062 258.71 233.341 259.412 233.342H365.304Z" fill="#3F3D56"/>
<path id="Vector_20" d="M342.741 212.365C343.535 212.365 344.297 212.049 344.859 211.487C345.421 210.925 345.736 210.163 345.736 209.369C345.736 208.575 345.421 207.813 344.859 207.251C344.297 206.689 343.535 206.374 342.741 206.374H281.976C281.181 206.374 280.419 206.689 279.858 207.251C279.296 207.813 278.98 208.575 278.98 209.369C278.98 210.163 279.296 210.925 279.858 211.487C280.419 212.049 281.181 212.365 281.976 212.365H342.741Z" fill="#6C63FF"/>
<path id="Vector_21" d="M342.741 194.716C343.535 194.716 344.297 194.4 344.859 193.839C345.421 193.277 345.736 192.515 345.736 191.72C345.736 190.926 345.421 190.164 344.859 189.602C344.297 189.041 343.535 188.725 342.741 188.725H281.976C281.181 188.725 280.419 189.041 279.858 189.602C279.296 190.164 278.98 190.926 278.98 191.72C278.98 192.515 279.296 193.277 279.858 193.839C280.419 194.4 281.181 194.716 281.976 194.716H342.741Z" fill="#6C63FF"/>
<path id="Vector_22" d="M312.358 138.742C316.087 138.742 319.733 139.848 322.833 141.92C325.934 143.992 328.351 146.936 329.778 150.382C331.205 153.827 331.578 157.618 330.851 161.276C330.123 164.933 328.328 168.293 325.691 170.93C323.054 173.567 319.694 175.363 316.037 176.09C312.379 176.818 308.588 176.444 305.143 175.017C301.697 173.59 298.752 171.173 296.681 168.073C294.609 164.972 293.503 161.327 293.503 157.597C293.509 152.598 295.497 147.806 299.032 144.271C302.567 140.736 307.359 138.748 312.358 138.742V138.742Z" fill="#6C63FF"/>
</g>
<g id="image4">
<path id="Vector_23" d="M257.304 595.107H151.412C150.242 595.105 149.121 594.64 148.294 593.813C147.467 592.986 147.001 591.864 147 590.695V480.412C147.001 479.242 147.467 478.121 148.294 477.294C149.121 476.467 150.242 476.001 151.412 476H257.304C258.474 476.001 259.596 476.467 260.423 477.294C261.25 478.121 261.715 479.242 261.717 480.412V590.695C261.715 591.864 261.25 592.986 260.423 593.813C259.596 594.64 258.474 595.105 257.304 595.107ZM151.412 477.765C150.71 477.766 150.037 478.045 149.541 478.541C149.045 479.037 148.766 479.71 148.765 480.412V590.695C148.766 591.397 149.045 592.069 149.541 592.566C150.037 593.062 150.71 593.341 151.412 593.342H257.304C258.006 593.341 258.679 593.062 259.176 592.566C259.672 592.069 259.951 591.397 259.952 590.695V480.412C259.951 479.71 259.672 479.037 259.176 478.541C258.679 478.045 258.006 477.766 257.304 477.765H151.412Z" fill="#3F3D56"/>
<path id="Vector_24" d="M173.976 498.742C173.181 498.742 172.419 499.058 171.858 499.62C171.296 500.181 170.98 500.943 170.98 501.738C170.98 502.532 171.296 503.294 171.858 503.856C172.419 504.418 173.181 504.733 173.976 504.733H234.741C235.135 504.734 235.525 504.657 235.889 504.507C236.253 504.357 236.584 504.136 236.863 503.858C237.141 503.58 237.362 503.249 237.513 502.885C237.664 502.522 237.742 502.132 237.742 501.738C237.742 501.344 237.664 500.954 237.513 500.59C237.362 500.226 237.141 499.896 236.863 499.618C236.584 499.339 236.253 499.119 235.889 498.969C235.525 498.818 235.135 498.742 234.741 498.742H173.976Z" fill="#6C63FF"/>
<path id="Vector_25" d="M173.976 516.391C173.181 516.391 172.419 516.706 171.858 517.268C171.296 517.83 170.98 518.592 170.98 519.386C170.98 520.181 171.296 520.943 171.858 521.504C172.419 522.066 173.181 522.382 173.976 522.382H234.741C235.535 522.382 236.297 522.066 236.859 521.504C237.421 520.943 237.736 520.181 237.736 519.386C237.736 518.592 237.421 517.83 236.859 517.268C236.297 516.706 235.535 516.391 234.741 516.391H173.976Z" fill="#6C63FF"/>
<path id="Vector_26" d="M204.359 572.365C200.629 572.365 196.984 571.259 193.883 569.187C190.783 567.115 188.366 564.17 186.939 560.725C185.512 557.28 185.138 553.488 185.866 549.831C186.593 546.173 188.389 542.814 191.026 540.177C193.663 537.54 197.023 535.744 200.68 535.017C204.338 534.289 208.129 534.662 211.574 536.09C215.019 537.517 217.964 539.933 220.036 543.034C222.108 546.135 223.214 549.78 223.214 553.509C223.208 558.508 221.22 563.301 217.685 566.836C214.15 570.371 209.357 572.359 204.359 572.365V572.365Z" fill="#6C63FF"/>
</g>
<g id="image5">
<path id="Vector_27" d="M423.211 492.937H323.875L347.252 452.445C347.671 451.72 348.273 451.117 348.999 450.698C349.725 450.279 350.548 450.058 351.386 450.058C352.224 450.058 353.047 450.279 353.773 450.698C354.499 451.117 355.101 451.72 355.52 452.445L365.507 469.742L382.487 440.332C383.012 439.423 383.766 438.669 384.675 438.144C385.583 437.619 386.614 437.343 387.663 437.343C388.712 437.343 389.743 437.619 390.652 438.144C391.56 438.669 392.315 439.423 392.839 440.332L423.211 492.937Z" fill="#6C63FF"/>
<path id="Vector_28" d="M423.304 492.926H317.412C316.242 492.924 315.121 492.459 314.294 491.632C313.467 490.805 313.001 489.683 313 488.514V429.412C313.001 428.242 313.467 427.121 314.294 426.294C315.121 425.467 316.242 425.001 317.412 425H423.304C424.474 425.001 425.596 425.467 426.423 426.294C427.25 427.121 427.715 428.242 427.717 429.412V488.514C427.715 489.683 427.25 490.805 426.423 491.632C425.596 492.459 424.474 492.924 423.304 492.926V492.926ZM317.412 426.765C316.71 426.766 316.037 427.045 315.541 427.541C315.045 428.037 314.766 428.71 314.765 429.412V488.514C314.766 489.215 315.045 489.888 315.541 490.385C316.037 490.881 316.71 491.16 317.412 491.161H423.304C424.006 491.16 424.679 490.881 425.175 490.385C425.672 489.888 425.951 489.215 425.952 488.514V429.412C425.951 428.71 425.672 428.037 425.176 427.541C424.679 427.045 424.006 426.766 423.304 426.765H317.412Z" fill="#3F3D56"/>
</g>
</g>
<defs>
<clipPath id="clip0">
<rect width="657.779" height="739.313" fill="white"/>
</clipPath>
</defs>
</svg>
